<svg width="246" height="261" viewBox="0 0 246 261" fill="none" xmlns="http://www.w3.org/2000/svg">
<path d="M121 239.66C179.222 239.66 226.42 190.569 226.42 130.013C226.42 69.456 179.222 20.3652 121 20.3652C62.7782 20.3652 15.5801 69.456 15.5801 130.013C15.5801 190.569 62.7782 239.66 121 239.66Z" fill="#EEEDF2"/>
<path d="M212.553 239.304H226.029" stroke="#1E247E" stroke-width="6" stroke-miterlimit="10" stroke-linecap="round"/>
<path d="M31.2539 239.304H206.693" stroke="#1E247E" stroke-width="6" stroke-miterlimit="10" stroke-linecap="round"/>
<path d="M15.7266 239.304H24.5156" stroke="#1E247E" stroke-width="6" stroke-miterlimit="10" stroke-linecap="round"/>
<path d="M137.357 160.637H109.964C89.1634 160.637 72.7083 142.354 73.929 120.769C74.8079 105.229 77.1028 91.0596 78.9095 86.0317C83.1575 74.3001 100.003 46.317 137.454 59.9276C137.454 59.9276 162.113 54.2904 169.144 87.0982C171.292 97.1031 172.806 109.038 173.49 120.922C174.759 142.506 158.109 160.637 137.357 160.637Z" fill="#EFC12F" stroke="#1E247E" stroke-width="6" stroke-miterlimit="10" stroke-linecap="round"/>
<path d="M113.334 89.9423C117.289 89.1805 121.732 87.8093 126.518 85.4223" stroke="#1E247E" stroke-width="3" stroke-miterlimit="10" stroke-linecap="round"/>
<path d="M106.791 90.7548C107.865 90.7041 109.037 90.6025 110.209 90.4501" stroke="#1E247E" stroke-width="3" stroke-miterlimit="10" stroke-linecap="round"/>
<path d="M148.441 88.6726C149.467 90.8564 151.322 93.091 153.422 94.7669C154.545 95.6811 155.424 96.7984 156.059 98.1188" fill="#D3D5E7"/>
<path d="M148.441 88.6726C149.467 90.8564 151.322 93.091 153.422 94.7669C154.545 95.6811 155.424 96.7984 156.059 98.1188" stroke="#1E247E" stroke-width="3" stroke-miterlimit="10" stroke-linecap="round"/>
<path d="M83.8906 139.459C81.5957 136.208 80.0332 132.349 79.4961 128.184" stroke="#1E247E" stroke-width="3" stroke-miterlimit="10" stroke-linecap="round"/>
<path d="M98.098 122.852C96.682 124.223 94.4359 124.071 93.1175 122.598L89.7972 118.789C88.4789 117.316 88.6253 114.98 90.0414 113.609C91.4574 112.237 93.7035 112.39 95.0218 113.863L98.3421 117.672C99.6605 119.195 99.5628 121.531 98.098 122.852Z" fill="#FCF5F2" stroke="#1E247E" stroke-width="5" stroke-miterlimit="10" stroke-linecap="round"/>
<path d="M148 94.4622C151.223 97.0523 153.176 101.064 153.176 105.28V108.581C153.176 117.418 150.783 126.102 146.047 133.415C143.166 137.834 139.357 142.15 134.377 144.893C131.252 146.62 127.639 147.686 123.537 147.788H123.195C118.898 147.737 115.139 146.62 111.818 144.791C107.766 142.557 104.494 139.306 101.857 135.853C95.998 128.083 93.0195 118.332 93.0195 108.479V106.499C93.0195 101.064 97.2676 96.0874 102.443 95.3256C109.572 94.3099 124.807 95.935 137.307 84.8637C138.43 83.8479 140.139 84.2542 140.773 85.6254C142.287 88.7742 144.924 92.0245 148 94.4622Z" fill="#FCF5F2" stroke="#1E247E" stroke-width="6" stroke-miterlimit="10" stroke-linecap="round"/>
<path d="M110.794 115.183C113.626 115.183 113.626 110.612 110.794 110.612C107.962 110.612 107.962 115.183 110.794 115.183Z" fill="#1E247E"/>
<path d="M135.354 115.183C138.187 115.183 138.187 110.612 135.354 110.612C132.522 110.612 132.522 115.183 135.354 115.183Z" fill="#1E247E"/>
<path d="M126.467 118.89C125.93 119.906 124.611 120.668 123.049 120.668C121.535 120.668 120.266 119.957 119.68 118.992" stroke="#1E247E" stroke-width="3" stroke-miterlimit="10" stroke-linecap="round"/>
<path d="M105.861 106.092C105.861 106.092 110.354 103.908 114.553 106.092" stroke="#1E247E" stroke-width="4" stroke-miterlimit="10" stroke-linecap="round"/>
<path d="M140.236 106.092C140.236 106.092 135.744 103.908 131.545 106.092" stroke="#1E247E" stroke-width="4" stroke-miterlimit="10" stroke-linecap="round"/>
<path d="M106.057 123.918C108.672 123.918 110.793 122.44 110.793 120.617C110.793 118.794 108.672 117.316 106.057 117.316C103.441 117.316 101.32 118.794 101.32 120.617C101.32 122.44 103.441 123.918 106.057 123.918Z" fill="#EAB8B1"/>
<path d="M140.09 123.918C142.706 123.918 144.826 122.44 144.826 120.617C144.826 118.794 142.706 117.316 140.09 117.316C137.474 117.316 135.354 118.794 135.354 120.617C135.354 122.44 137.474 123.918 140.09 123.918Z" fill="#EAB8B1"/>
<path d="M129.495 128.591L128.518 131.13L128.421 131.384C128.225 131.892 127.932 132.399 127.493 133.11C127.347 133.314 127.2 133.517 127.054 133.72C126.663 134.177 126.126 134.634 125.54 134.99C125.491 135.04 125.442 135.04 125.345 135.091C125.1 135.244 124.856 135.345 124.612 135.447C124.368 135.548 124.075 135.65 123.782 135.751C123.538 135.853 123.294 135.853 123.05 135.853C122.806 135.853 122.561 135.802 122.317 135.751C122.024 135.65 121.731 135.548 121.487 135.447C121.243 135.345 120.999 135.193 120.755 135.091C120.706 135.04 120.657 135.04 120.559 134.99C119.973 134.634 119.436 134.177 119.046 133.72C118.85 133.517 118.704 133.314 118.557 133.06C118.167 132.501 117.874 131.892 117.679 131.384L116.604 128.591C116.409 128.083 116.751 127.524 117.288 127.524H128.811C129.348 127.524 129.69 128.083 129.495 128.591Z" fill="#DC9695" stroke="#1E247E" stroke-width="4" stroke-miterlimit="10" stroke-linecap="round"/>
<path d="M127.004 133.771C126.906 133.923 126.662 134.177 126.467 134.329C126.076 134.685 125.637 134.939 125.148 135.243C125.1 135.294 125.002 135.345 124.953 135.345C124.758 135.447 124.562 135.497 124.367 135.599C124.172 135.701 123.928 135.751 123.684 135.853C123.488 135.904 123.293 135.955 123.098 135.955C122.902 135.955 122.707 135.904 122.512 135.853C122.268 135.802 122.023 135.701 121.828 135.599C121.633 135.497 121.438 135.447 121.242 135.345C121.193 135.294 121.096 135.294 121.047 135.243C120.559 134.939 120.021 134.634 119.68 134.279C119.533 134.126 119.338 134.025 119.24 133.821C119.533 132.806 120.705 131.841 121.779 131.841C122.414 131.841 123.049 132.095 123.439 132.552C123.488 132.603 123.488 132.603 123.537 132.552C123.879 132.298 124.27 132.146 124.758 132.146C125.637 132.146 126.711 132.907 127.004 133.771Z" fill="#EECED1" stroke="#1E247E" stroke-width="3" stroke-miterlimit="10" stroke-linecap="round"/>
<path d="M123.391 132.501C123.391 132.501 123.879 132.907 124.123 133.72L123.391 132.501Z" fill="#CB7272"/>
<path d="M123.391 132.501C123.391 132.501 123.879 132.907 124.123 133.72" stroke="#1E247E" stroke-width="3" stroke-miterlimit="10" stroke-linecap="round"/>
<path d="M154.203 238.593H91.9473C85.1113 238.593 79.4961 232.753 79.4961 225.643V185.065C79.4961 166.375 94.0957 151.19 112.064 151.19H134.135C152.104 151.19 166.703 166.375 166.703 185.065V225.643C166.654 232.753 161.088 238.593 154.203 238.593Z" fill="#D3D5E7" stroke="#1E247E" stroke-width="6" stroke-miterlimit="10" stroke-linecap="round"/>
<path d="M134.379 144.893V154.034C134.379 154.339 134.232 154.644 134.037 154.796C124.076 163.227 114.262 156.371 112.26 154.796C112.016 154.593 111.869 154.288 111.869 153.984V144.791C115.141 146.569 118.9 147.737 123.246 147.788H123.588C127.641 147.686 131.205 146.569 134.379 144.893Z" fill="#FCF5F2" stroke="#1E247E" stroke-width="6" stroke-miterlimit="10" stroke-linecap="round"/>
<path d="M166.068 115.538V119.601C166.068 125.34 161.576 130.013 156.059 130.013H148.588V128.794C151.615 122.547 153.129 115.64 153.129 108.581V105.127H156.059C161.576 105.127 166.068 109.8 166.068 115.538Z" fill="#D3D5E7" stroke="#1E247E" stroke-width="6" stroke-miterlimit="10" stroke-linecap="round"/>
<path d="M130.814 136.97H149.613C152.104 136.97 154.105 134.888 154.105 132.298V131.993V130.013" stroke="#1E247E" stroke-width="6" stroke-miterlimit="10" stroke-linecap="round"/>
<path d="M132.084 139.205H129.936C128.764 139.205 127.787 138.189 127.787 136.97C127.787 135.751 128.764 134.736 129.936 134.736H132.084C133.256 134.736 134.232 135.751 134.232 136.97C134.232 138.189 133.256 139.205 132.084 139.205Z" fill="#D3D5E7" stroke="#1E247E" stroke-width="6" stroke-miterlimit="10" stroke-linecap="round"/>
<path d="M182.426 239.203H63.7734C58.207 239.203 53.666 234.48 53.666 228.69V225.033C53.666 224.779 53.8613 224.576 54.1055 224.576H192.094C192.338 224.576 192.533 224.779 192.533 225.033V228.69C192.533 234.48 187.992 239.203 182.426 239.203Z" fill="#D3D5E7" stroke="#1E247E" stroke-width="6" stroke-miterlimit="10" stroke-linecap="round"/>
<path d="M172.025 239.203H74.5644C69.4863 239.203 65.3359 234.886 65.3359 229.604V168.712C65.3359 164.395 68.7051 160.891 72.8555 160.891H173.734C177.885 160.891 181.254 164.395 181.254 168.712V229.604C181.254 234.886 177.104 239.203 172.025 239.203Z" fill="#69AEF8" stroke="#1E247E" stroke-width="6" stroke-miterlimit="10" stroke-linecap="round"/>
<path opacity="0.4" d="M131.596 201.113C131.596 204.668 129.545 207.715 126.615 208.985C126.811 208.528 126.908 208.02 126.908 207.512C126.908 205.328 125.199 203.551 123.1 203.551C121 203.551 119.291 205.328 119.291 207.512C119.291 207.918 119.34 208.325 119.486 208.68C116.85 207.258 115.092 204.363 115.092 201.062C115.092 196.288 118.803 192.479 123.344 192.479C127.885 192.479 131.596 196.339 131.596 201.113Z" fill="#D3D5E7"/>
<path opacity="0.7" d="M126.859 207.512C126.859 208.02 126.762 208.528 126.566 208.985C125.541 209.442 124.467 209.696 123.295 209.696C121.879 209.696 120.609 209.34 119.438 208.68C119.34 208.325 119.242 207.918 119.242 207.512C119.242 205.328 120.951 203.551 123.051 203.551C125.199 203.602 126.859 205.328 126.859 207.512Z" fill="#D3D5E7"/>
<path d="M171.83 164.344C174.613 164.344 176.908 166.731 176.908 169.626" stroke="#1E247E" stroke-width="3" stroke-miterlimit="10" stroke-linecap="round"/>
<path d="M176.957 196.136V205.328" stroke="#1E247E" stroke-width="3" stroke-miterlimit="10" stroke-linecap="round"/>
<path d="M85.3555 192.022L88.5781 194.612" stroke="#1E247E" stroke-width="2.5" stroke-miterlimit="10" stroke-linecap="round"/>
<path d="M85.3555 188.874L91.752 193.952" stroke="#1E247E" stroke-width="2.5" stroke-miterlimit="10" stroke-linecap="round"/>
<path d="M89.9941 189.28L91.752 190.702" stroke="#1E247E" stroke-width="2.5" stroke-miterlimit="10" stroke-linecap="round"/>
<path d="M193.266 159.773L189.164 160.992" stroke="#D3D5E7" stroke-width="7" stroke-miterlimit="10" stroke-linecap="round"/>
<path d="M188.871 153.628L185.6 157.234" stroke="#D3D5E7" stroke-width="7" stroke-miterlimit="10" stroke-linecap="round"/>
<path d="M181.4 154.136L182.133 149.514" stroke="#D3D5E7" stroke-width="7" stroke-miterlimit="10" stroke-linecap="round"/>
</svg>
