<svg width="240" height="225" viewBox="0 0 240 225" fill="none" xmlns="http://www.w3.org/2000/svg">
<path d="M120 224.517C186.274 224.517 240 174.257 240 112.258C240 50.2598 186.274 0 120 0C53.7258 0 0 50.2598 0 112.258C0 174.257 53.7258 224.517 120 224.517Z" fill="#1E1F24"/>
<mask id="mask0_42_121" style="mask-type:luminance" maskUnits="userSpaceOnUse" x="0" y="0" width="240" height="225">
<mask id="mask1_42_121" style="mask-type:luminance" maskUnits="userSpaceOnUse" x="0" y="0" width="240" height="225">
<path d="M120 224.517C186.274 224.517 240 174.257 240 112.258C240 50.2598 186.274 0 120 0C53.7258 0 0 50.2598 0 112.258C0 174.257 53.7258 224.517 120 224.517Z" fill="white"/>
</mask>
<g mask="url(#mask1_42_121)">
<path d="M120 224.517C186.274 224.517 240 174.257 240 112.258C240 50.2598 186.274 0 120 0C53.7258 0 0 50.2598 0 112.258C0 174.257 53.7258 224.517 120 224.517Z" fill="white"/>
</g>
</mask>
<g mask="url(#mask0_42_121)">
<path d="M156 170.409L222.96 187.697C230.64 190.166 236.64 195.555 240 202.515V224.517H0V202.515C3.12 195.555 9.36001 190.166 17.04 187.697L84 170.409V136.956H156V170.409Z" fill="#D4B08C"/>
</g>
<mask id="mask2_42_121" style="mask-type:luminance" maskUnits="userSpaceOnUse" x="0" y="0" width="240" height="225">
<mask id="mask3_42_121" style="mask-type:luminance" maskUnits="userSpaceOnUse" x="0" y="0" width="240" height="225">
<path d="M120 224.517C186.274 224.517 240 174.257 240 112.258C240 50.2598 186.274 0 120 0C53.7258 0 0 50.2598 0 112.258C0 174.257 53.7258 224.517 120 224.517Z" fill="white"/>
</mask>
<g mask="url(#mask3_42_121)">
<path d="M120 224.517C186.274 224.517 240 174.257 240 112.258C240 50.2598 186.274 0 120 0C53.7258 0 0 50.2598 0 112.258C0 174.257 53.7258 224.517 120 224.517Z" fill="white"/>
</g>
</mask>
<g mask="url(#mask2_42_121)">
<mask id="mask4_42_121" style="mask-type:luminance" maskUnits="userSpaceOnUse" x="0" y="136" width="240" height="89">
<path d="M156 170.409L222.96 187.697C230.64 190.166 236.64 195.555 240 202.515V224.517H0V202.515C3.12 195.555 9.36001 190.166 17.04 187.697L84 170.409V136.956H156V170.409Z" fill="white"/>
</mask>
<g mask="url(#mask4_42_121)">
<path d="M120.48 179.614H103.2L91.68 168.388H0V224.517H120.48H240.96V168.388H149.28L137.76 179.614H120.48Z" fill="#70A619"/>
</g>
</g>
<path d="M120 166.143C116.4 166.143 111.6 165.469 108.48 164.122C104.64 162.55 91.2 153.794 86.64 149.977C80.64 144.813 77.52 138.527 76.56 127.526C75.6 116.524 72 77.2341 72 68.2535C72 55.456 84.24 35.6986 119.76 35.6986C155.28 35.6986 167.52 55.456 167.52 68.2535C167.52 77.2341 163.92 116.524 162.96 127.526C162 138.527 159.12 144.813 152.88 149.977C148.32 153.794 134.64 162.55 131.04 164.122C128.4 165.469 123.6 166.143 120 166.143Z" fill="#F2CEA5"/>
<mask id="mask5_42_121" style="mask-type:luminance" maskUnits="userSpaceOnUse" x="72" y="35" width="96" height="132">
<path d="M120 166.143C116.4 166.143 111.6 165.469 108.48 164.122C104.64 162.55 91.2 153.794 86.64 149.977C80.64 144.813 77.52 138.527 76.56 127.526C75.6 116.524 72 77.2341 72 68.2535C72 55.456 84.24 35.6986 119.76 35.6986C155.28 35.6986 167.52 55.456 167.52 68.2535C167.52 77.2341 163.92 116.524 162.96 127.526C162 138.527 159.12 144.813 152.88 149.977C148.32 153.794 134.64 162.55 131.04 164.122C128.4 165.469 123.6 166.143 120 166.143Z" fill="white"/>
</mask>
<g mask="url(#mask5_42_121)">
<path d="M120 166.143C116.4 166.143 111.6 165.469 108.48 164.122C104.64 162.55 91.2 153.794 86.64 149.977C80.64 144.813 77.52 138.527 76.56 127.526C75.6 116.524 72 77.2341 72 68.2535C72 55.456 84.24 35.6986 119.76 35.6986C155.28 35.6986 167.52 55.456 167.52 68.2535C167.52 77.2341 163.92 116.524 162.96 127.526C162 138.527 159.12 144.813 152.88 149.977C148.32 153.794 134.64 162.55 131.04 164.122C128.4 165.469 123.6 166.143 120 166.143Z" fill="#F2CEA5"/>
</g>
<mask id="mask6_42_121" style="mask-type:luminance" maskUnits="userSpaceOnUse" x="72" y="35" width="96" height="132">
<path d="M120 166.143C116.4 166.143 111.6 165.469 108.48 164.122C104.64 162.55 91.2 153.794 86.64 149.977C80.64 144.813 77.52 138.527 76.56 127.526C75.6 116.524 72 77.2341 72 68.2535C72 55.456 84.24 35.6986 119.76 35.6986C155.28 35.6986 167.52 55.456 167.52 68.2535C167.52 77.2341 163.92 116.524 162.96 127.526C162 138.527 159.12 144.813 152.88 149.977C148.32 153.794 134.64 162.55 131.04 164.122C128.4 165.469 123.6 166.143 120 166.143Z" fill="white"/>
</mask>
<g mask="url(#mask6_42_121)">
<path d="M119.76 134.71C114.48 134.486 116.4 130.22 108.48 130.22C100.56 130.22 95.5202 134.037 93.3602 136.956L74.1602 112.259V172.878H120H165.84V112.259L146.64 136.956C144.24 134.261 139.44 130.445 131.52 130.22C123.6 129.996 125.04 134.486 119.76 134.71ZM119.76 139.201C114 139.201 116.16 136.956 109.92 136.956C101.52 136.956 97.9202 138.527 97.9202 142.569C97.9202 146.61 100.8 152.223 109.92 152.672C112.56 152.447 114 151.774 114.72 150.876C114.72 149.529 115.68 147.957 119.76 148.181C123.84 147.957 124.56 149.529 124.8 150.876C125.52 151.774 126.96 152.672 129.6 152.672C138.72 152.223 141.6 146.61 141.6 142.569C141.6 138.527 138 136.956 129.6 136.956C123.6 136.956 125.52 139.201 119.76 139.201Z" fill="#D3D5E7"/>
</g>
<mask id="mask7_42_121" style="mask-type:luminance" maskUnits="userSpaceOnUse" x="72" y="35" width="96" height="132">
<path d="M120 166.143C116.4 166.143 111.6 165.469 108.48 164.122C104.64 162.55 91.2 153.794 86.64 149.977C80.64 144.813 77.52 138.527 76.56 127.526C75.6 116.524 72 77.2341 72 68.2535C72 55.456 84.24 35.6986 119.76 35.6986C155.28 35.6986 167.52 55.456 167.52 68.2535C167.52 77.2341 163.92 116.524 162.96 127.526C162 138.527 159.12 144.813 152.88 149.977C148.32 153.794 134.64 162.55 131.04 164.122C128.4 165.469 123.6 166.143 120 166.143Z" fill="white"/>
</mask>
<g mask="url(#mask7_42_121)">
<path d="M127.2 145.936H112.8C111.36 145.936 110.4 145.038 110.4 143.691C110.4 142.344 111.36 141.446 112.8 141.446H127.2C128.64 141.446 129.6 142.344 129.6 143.691C129.6 145.038 128.64 145.936 127.2 145.936Z" fill="#A3705F"/>
</g>
<mask id="mask8_42_121" style="mask-type:luminance" maskUnits="userSpaceOnUse" x="72" y="35" width="96" height="132">
<path d="M120 166.143C116.4 166.143 111.6 165.469 108.48 164.122C104.64 162.55 91.2 153.794 86.64 149.977C80.64 144.813 77.52 138.527 76.56 127.526C75.6 116.524 72 77.2341 72 68.2535C72 55.456 84.24 35.6986 119.76 35.6986C155.28 35.6986 167.52 55.456 167.52 68.2535C167.52 77.2341 163.92 116.524 162.96 127.526C162 138.527 159.12 144.813 152.88 149.977C148.32 153.794 134.64 162.55 131.04 164.122C128.4 165.469 123.6 166.143 120 166.143Z" fill="white"/>
</mask>
<g mask="url(#mask8_42_121)">
<path d="M141.6 105.523C144.24 105.523 146.4 103.503 146.4 101.033C146.4 98.5634 144.24 96.5427 141.6 96.5427C138.96 96.5427 136.8 98.5634 136.8 101.033C136.8 103.503 138.96 105.523 141.6 105.523ZM98.3996 105.523C101.04 105.523 103.2 103.503 103.2 101.033C103.2 98.5634 101.04 96.5427 98.3996 96.5427C95.7596 96.5427 93.5996 98.5634 93.5996 101.033C93.5996 103.503 95.7596 105.523 98.3996 105.523Z" fill="#262626"/>
</g>
<mask id="mask9_42_121" style="mask-type:luminance" maskUnits="userSpaceOnUse" x="72" y="35" width="96" height="132">
<path d="M120 166.143C116.4 166.143 111.6 165.469 108.48 164.122C104.64 162.55 91.2 153.794 86.64 149.977C80.64 144.813 77.52 138.527 76.56 127.526C75.6 116.524 72 77.2341 72 68.2535C72 55.456 84.24 35.6986 119.76 35.6986C155.28 35.6986 167.52 55.456 167.52 68.2535C167.52 77.2341 163.92 116.524 162.96 127.526C162 138.527 159.12 144.813 152.88 149.977C148.32 153.794 134.64 162.55 131.04 164.122C128.4 165.469 123.6 166.143 120 166.143Z" fill="white"/>
</mask>
<g mask="url(#mask9_42_121)">
<path d="M111.84 97.6652C110.64 95.8691 107.28 92.0523 98.6398 92.0523C88.7998 92.0523 86.3998 97.2162 86.3998 97.4407L81.8398 95.8691C82.0798 95.6446 85.1998 87.7865 98.6398 87.7865C109.68 87.7865 114.48 93.1749 115.92 95.6446L111.84 97.6652Z" fill="#CC9872"/>
</g>
<mask id="mask10_42_121" style="mask-type:luminance" maskUnits="userSpaceOnUse" x="72" y="35" width="96" height="132">
<path d="M120 166.143C116.4 166.143 111.6 165.469 108.48 164.122C104.64 162.55 91.2 153.794 86.64 149.977C80.64 144.813 77.52 138.527 76.56 127.526C75.6 116.524 72 77.2341 72 68.2535C72 55.456 84.24 35.6986 119.76 35.6986C155.28 35.6986 167.52 55.456 167.52 68.2535C167.52 77.2341 163.92 116.524 162.96 127.526C162 138.527 159.12 144.813 152.88 149.977C148.32 153.794 134.64 162.55 131.04 164.122C128.4 165.469 123.6 166.143 120 166.143Z" fill="white"/>
</mask>
<g mask="url(#mask10_42_121)">
<path d="M122.4 121.239C122.4 120.566 122.4 105.299 122.4 101.033C122.4 95.4201 128.4 87.7865 141.6 87.562C154.8 87.562 158.16 95.4201 158.4 95.6446L153.84 97.2162C153.84 96.9917 151.44 92.0523 141.6 91.8278C131.76 91.8278 127.2 97.2162 127.2 100.808C127.2 105.074 127.2 120.79 127.2 121.015L122.4 121.239Z" fill="#BB8660"/>
</g>
<path d="M84.2402 167.041L88.3202 160.754L119.28 174.001L150.72 162.999L156 167.939V182.532C156 182.532 130.08 206.331 120 206.556C109.92 206.556 84.2402 180.736 84.2402 180.736V167.041Z" fill="#D4B08C"/>
<path d="M156 170.408C155.76 175.796 156 175.796 156 180.062C156 211.719 135.6 224.292 135.6 224.292H131.28H120.72H110.4H106.08C106.08 224.292 84 209.25 84 182.307C84 177.817 84 172.429 84 170.408C86.4 172.653 90.48 189.043 120.96 189.043C151.44 189.043 153.6 172.653 156 170.408Z" fill="#D3D5E7"/>
<path d="M141.601 67.3553H98.6406V71.8457H141.601V67.3553Z" fill="#E1BC90"/>
<path d="M132 76.3361H108.24V80.8264H132V76.3361Z" fill="#E1BC90"/>
<path d="M150.239 43.1077C150.239 43.1077 158.639 52.9864 159.839 67.58C160.319 74.091 157.439 78.8059 163.199 91.3788C165.839 96.9917 165.839 98.1143 165.839 100.359C172.319 81.2756 176.399 54.3335 150.239 43.1077ZM89.7593 43.1077C89.7593 43.1077 81.3593 52.9864 80.1593 67.58C79.6793 74.091 82.5593 78.8059 76.7993 91.3788C74.1593 96.9917 74.1593 98.1143 74.1593 100.359C67.6793 81.2756 63.5993 54.3335 89.7593 43.1077Z" fill="#D3D5E7"/>
</svg>
