<svg width="240" height="225" viewBox="0 0 240 225" fill="none" xmlns="http://www.w3.org/2000/svg">
<path d="M120 217.501C182.132 217.501 232.5 170.383 232.5 112.259C232.5 54.1348 182.132 7.01611 120 7.01611C57.868 7.01611 7.5 54.1348 7.5 112.259C7.5 170.383 57.868 217.501 120 217.501Z" fill="#00ADFE"/>
<path opacity="0.3" d="M120 196.452C169.706 196.452 210 158.757 210 112.258C210 65.7594 169.706 28.0646 120 28.0646C70.2944 28.0646 30 65.7594 30 112.258C30 158.757 70.2944 196.452 120 196.452Z" fill="#D3D5E7"/>
<path d="M58.2754 107.996V80.5456C58.2754 65.2311 64.7785 50.544 76.3542 39.715C87.9299 28.8861 103.63 22.8025 120 22.8025C136.371 22.8025 152.071 28.8861 163.647 39.715C175.222 50.544 181.725 65.2311 181.725 80.5456V107.996H58.2754Z" fill="#393C54"/>
<path d="M171.224 119.906C179.436 119.906 186.093 113.679 186.093 105.997C186.093 98.3148 179.436 92.0873 171.224 92.0873C163.012 92.0873 156.355 98.3148 156.355 105.997C156.355 113.679 163.012 119.906 171.224 119.906Z" fill="#FBA875"/>
<path d="M120 217.677C147.68 217.712 174.395 208.165 195 190.875L190.519 180.912C187.312 173.896 178.856 169.265 169.35 169.265H70.6687C61.1625 169.265 52.7062 173.931 49.5 180.912L45 190.875C65.6049 208.165 92.32 217.712 120 217.677Z" fill="#B56B63"/>
<path d="M153.225 172.335C153.139 170.96 152.491 169.67 151.416 168.73C150.342 167.789 148.922 167.272 147.45 167.283H92.5502C91.0648 167.277 89.6343 167.808 88.558 168.766C87.4818 169.724 86.843 171.034 86.7752 172.422C86.7752 172.615 86.7752 172.791 86.7752 172.984C86.4565 185.823 106.5 202.171 106.5 202.171L120 189.524L133.444 202.101C133.444 202.101 153.244 186.314 153.244 173.65C153.244 173.194 153.244 172.756 153.225 172.335Z" fill="#D3D5E7"/>
<path d="M120 148.655V172.773" stroke="#FBA875" stroke-width="20" stroke-miterlimit="10" stroke-linecap="round"/>
<path d="M68.775 119.906C76.9868 119.906 83.6438 113.679 83.6438 105.997C83.6438 98.3148 76.9868 92.0873 68.775 92.0873C60.5632 92.0873 53.9062 98.3148 53.9062 105.997C53.9062 113.679 60.5632 119.906 68.775 119.906Z" fill="#FBA875"/>
<path d="M120 165.529C113.027 165.531 106.12 164.248 99.677 161.752C93.2335 159.257 87.3788 155.598 82.4475 150.985C77.5162 146.372 73.605 140.895 70.9374 134.867C68.2697 128.839 66.8979 122.378 66.9004 115.854V83.1941C66.9004 70.0196 72.4948 57.3847 82.453 48.0689C92.4112 38.7531 105.917 33.5195 120 33.5195C134.083 33.5195 147.59 38.7531 157.548 48.0689C167.506 57.3847 173.1 70.0196 173.1 83.1941V115.854C173.103 122.378 171.731 128.839 169.063 134.867C166.396 140.895 162.485 146.372 157.553 150.985C152.622 155.598 146.767 159.257 140.324 161.752C133.88 164.248 126.974 165.531 120 165.529Z" fill="#FFBB94"/>
<path d="M145.312 109.241C148.419 109.241 150.938 106.885 150.938 103.979C150.938 101.073 148.419 98.7172 145.312 98.7172C142.206 98.7172 139.688 101.073 139.688 103.979C139.688 106.885 142.206 109.241 145.312 109.241Z" fill="#393C54"/>
<path d="M94.6875 109.241C97.7941 109.241 100.312 106.885 100.312 103.979C100.312 101.073 97.7941 98.7172 94.6875 98.7172C91.5809 98.7172 89.0625 101.073 89.0625 103.979C89.0625 106.885 91.5809 109.241 94.6875 109.241Z" fill="#393C54"/>
<path opacity="0.4" d="M140.043 92.9743L158.08 92.5255" stroke="#515570" stroke-width="2" stroke-linecap="round" stroke-linejoin="round"/>
<path opacity="0.4" d="M99.9555 92.9743L81.918 92.5255" stroke="#515570" stroke-width="2" stroke-linecap="round" stroke-linejoin="round"/>
<path d="M173.1 113.679H171.038C169.446 113.679 167.919 114.267 166.788 115.315C165.658 116.363 165.015 117.786 165 119.275C165 120.773 164.364 122.209 163.232 123.268C162.1 124.328 160.564 124.923 158.963 124.923H81.0379C79.4366 124.923 77.901 124.328 76.7687 123.268C75.6365 122.209 75.0004 120.773 75.0004 119.275C75.0004 117.777 74.3643 116.34 73.232 115.281C72.0998 114.222 70.5641 113.627 68.9629 113.627H66.9004V144.322C66.9004 171.387 89.5879 194.26 118.5 195.014C125.597 195.201 132.662 194.056 139.277 191.645C145.893 189.234 151.924 185.606 157.015 180.976C162.105 176.347 166.151 170.809 168.914 164.691C171.677 158.573 173.101 151.999 173.1 145.357V113.679Z" fill="#393C54"/>
<path d="M134.156 131.553C134.404 131.567 134.647 131.626 134.87 131.728C135.094 131.83 135.293 131.972 135.457 132.147C135.621 132.321 135.746 132.525 135.826 132.745C135.905 132.965 135.937 133.198 135.919 133.43C135.454 137.079 133.576 140.442 130.639 142.882C127.701 145.322 123.909 146.67 119.981 146.67C116.053 146.67 112.261 145.322 109.324 142.882C106.387 140.442 104.508 137.079 104.044 133.43C104.026 133.195 104.059 132.96 104.14 132.737C104.222 132.515 104.351 132.31 104.518 132.135C104.686 131.96 104.89 131.818 105.118 131.718C105.346 131.618 105.592 131.562 105.844 131.553H134.156Z" fill="#D3D5E7"/>
<path d="M120 106.558V117.959" stroke="#FBA875" stroke-width="4" stroke-miterlimit="10" stroke-linecap="round"/>
<path d="M124.688 119.274H115.312" stroke="#FBA875" stroke-width="4" stroke-miterlimit="10" stroke-linecap="round"/>
<path d="M67.5 98.2261V63.1454" stroke="#393C54" stroke-width="4" stroke-miterlimit="10" stroke-linecap="round"/>
<path d="M172.5 98.2261V61.3914" stroke="#393C54" stroke-width="4" stroke-miterlimit="10" stroke-linecap="round"/>
<path d="M58.125 41.7987C58.125 48.8559 61.1217 55.6239 66.456 60.614C71.7902 65.6042 79.025 68.4076 86.5687 68.4076H171.563C171.862 68.4197 172.16 68.3645 172.432 68.2466C172.704 68.1286 172.942 67.9514 173.125 67.7298C173.309 67.5082 173.433 67.2486 173.488 66.9729C173.542 66.6971 173.525 66.4131 173.438 66.1449C169.784 55.58 162.642 46.3716 153.04 39.8441C143.438 33.3166 131.87 29.8065 120 29.8186H58.125V41.7987Z" fill="#515570"/>
<path opacity="0.1" d="M132.188 57.8834H89.4941C84.5213 57.8834 79.7522 56.0354 76.2359 52.7459C72.7196 49.4565 70.7441 44.995 70.7441 40.343" stroke="#D3D5E7" stroke-width="4" stroke-miterlimit="10" stroke-linecap="round"/>
<path opacity="0.3" d="M121.875 117.521H125.625" stroke="#F85565" stroke-width="2" stroke-linecap="round" stroke-linejoin="round"/>
<path opacity="0.1" d="M94.5367 123.923C99.2795 123.923 103.124 121.583 103.124 118.696C103.124 115.809 99.2795 113.469 94.5367 113.469C89.794 113.469 85.9492 115.809 85.9492 118.696C85.9492 121.583 89.794 123.923 94.5367 123.923Z" fill="#F85565"/>
<path opacity="0.1" d="M145.463 123.923C150.205 123.923 154.05 121.583 154.05 118.696C154.05 115.809 150.205 113.469 145.463 113.469C140.72 113.469 136.875 115.809 136.875 118.696C136.875 121.583 140.72 123.923 145.463 123.923Z" fill="#F85565"/>
</svg>
